<svg xmlns="http://www.w3.org/2000/svg" viewBox="0 0 248 82">
   <path d="M0 80.1h33.094c50.5 0 50.5-78.209 0-78.209H0zm28.938-30.278V31.834h4.714c9.944 0 10.056 17.988 0 17.988z"/>
   <path d="M105.539 15.521c-12.56-.178-24.714 7.778-29.604 19.342-5.112 11.395-2.77 25.632 5.793 34.74 6.416 7.138 16.109 10.971 25.66 10.487h3.626v.01h26.814c-.04-11.456.083-22.914-.066-34.367-.646-12.787-9.736-24.557-21.893-28.518a32.221 32.221 0 00-10.33-1.693zm-.13 26.727c2.358.016 4.74 1.482 5.358 3.928.36 2.373.271 4.79.235 7.201-2.176.014-4.352.016-6.52-.082-4.24-.616-6.087-6.505-2.91-9.408 1.013-1.136 2.42-1.649 3.836-1.639zM170.728 17.421c-17.54 0-29.83 11.508-29.83 29.05V80.1h27.484V49.353c0-3.437 2.162-5.676 5.676-5.676h6.614V17.421zM215.539 15.521c-12.56-.178-24.713 7.777-29.603 19.342-5.148 11.468-2.734 25.81 5.949 34.916 6.449 7.081 16.137 10.83 25.663 10.32h30.28l-23.926-26.73h23.947v-5.535c0-10.917-5.792-21.742-15.212-27.439-5.092-3.194-11.09-4.884-17.098-4.874zm0 26.704c4.091-.167 7.078 4.863 4.846 8.35-1.945 3.884-8.094 3.452-9.85-.361-1.68-3.44 1.047-8.1 5.004-7.99z"/>
</svg>