<svg xmlns="http://www.w3.org/2000/svg" viewBox="0 0 367 82">
   <path d="M34.014 49.809c-2.43 0-4.86-1.956-4.86-5.866V1.758L0 1.89v45.728C0 69.238 16.284 80.1 32.569 80.1h25.083V49.809zM98.32 48.37c0 7.82-9.72 7.82-9.72 0V17.42H60.892v32.066c0 43.239 65.137 43.239 65.137 0V17.421H98.321V48.37zM167.74 1.89v13.56l-6 .19c-18.182.163-32.769 14.954-32.769 33.176 0 18.324 14.747 33.184 33.07 33.184 18.324 0 33.184-14.86 33.184-33.184V1.891h-27.484zm-6 41.245h6v5.681c0 3.129-2.458 5.7-5.698 5.7-3.129 0-5.586-2.571-5.586-5.7 0-3.026 2.302-5.522 5.285-5.681zM235.798 48.37c0 7.82-9.72 7.82-9.72 0V17.42h-27.709v32.066c0 43.239 65.138 43.239 65.138 0V17.421h-27.709V48.37zM329.463 48.37c0-6.927 8.715-6.816 8.715-.112v31.843h27.485V47.14c0-22.904-16.536-31.73-32.178-31.62-6.145.113-12.96 2.347-17.318 7.04-5.028-5.028-11.396-7.04-17.653-7.04-15.53 0-31.842 8.157-31.842 31.62V80.1h27.485V48.258c0-6.704 8.603-6.815 8.603.112V80.1h26.703V48.37z"/>
</svg>